<?xml version="1.0" standalone="no"?>
<!DOCTYPE svg PUBLIC "-//W3C//DTD SVG 20010904//EN"
 "http://www.w3.org/TR/2001/REC-SVG-20010904/DTD/svg10.dtd">
<svg version="1.0" xmlns="http://www.w3.org/2000/svg"
 width="700.000000pt" height="700.000000pt" viewBox="0 0 700.000000 700.000000"
 preserveAspectRatio="xMidYMid meet">
<metadata>
Created by potrace 1.14, written by Peter Selinger 2001-2017
</metadata>
<g transform="translate(0.000000,700.000000) scale(0.100000,-0.100000)"
fill="#000000" stroke="none">
<path d="M3278 6995 c-1 -1 -42 -5 -89 -9 -47 -4 -95 -8 -106 -10 -11 -3 -44
-7 -74 -11 -108 -13 -215 -34 -379 -75 -345 -87 -682 -232 -1005 -435 -94 -58
-316 -221 -384 -280 -516 -452 -862 -965 -1067 -1582 -36 -108 -91 -315 -100
-373 -3 -19 -7 -43 -10 -52 -13 -44 -41 -234 -51 -348 -10 -107 -10 -517 -1
-632 67 -807 436 -1591 1023 -2173 276 -273 532 -456 915 -656 116 -60 439
-189 511 -204 9 -2 47 -12 85 -24 144 -42 349 -85 514 -106 164 -21 602 -28
765 -12 976 95 1849 576 2446 1347 194 251 366 553 483 847 47 120 121 339
131 391 1 9 12 56 24 104 26 112 37 173 65 358 28 188 29 719 1 863 -3 15 -7
44 -10 65 -19 176 -80 431 -152 642 -62 183 -98 268 -195 458 -334 656 -872
1195 -1522 1526 -331 169 -728 299 -1036 341 -19 3 -46 7 -60 10 -13 2 -52 7
-86 11 -33 3 -74 8 -90 10 -33 5 -540 14 -546 9z"/>
</g>
</svg>
